<?xml version="1.0" standalone="no"?>
<!DOCTYPE svg PUBLIC "-//W3C//DTD SVG 20010904//EN"
 "http://www.w3.org/TR/2001/REC-SVG-20010904/DTD/svg10.dtd">
<svg version="1.0" xmlns="http://www.w3.org/2000/svg"
 width="1890.000000pt" height="1417.000000pt" viewBox="0 0 1890.000000 1417.000000"
 preserveAspectRatio="xMidYMid meet">

<g transform="translate(0.000000,1417.000000) scale(0.100000,-0.100000)"
fill="#000000" stroke="none">
<path d="M9051 9108 l-202 -263 206 -3 c113 -1 298 -1 411 0 l205 3 -196 250
c-108 138 -202 256 -209 263 -10 10 -51 -38 -215 -250z"/>
<path d="M10078 8665 c8 -14 453 -648 461 -657 4 -4 51 136 105 313 54 176 97
322 95 324 -10 9 -667 29 -661 20z"/>
<path d="M7760 8645 c0 -30 146 -635 153 -632 4 1 122 142 262 312 l254 310
-182 7 c-331 13 -487 14 -487 3z"/>
<path d="M7877 6947 c-19 -79 -108 -629 -103 -634 6 -6 534 33 623 46 l41 6
-230 250 c-127 138 -252 273 -278 302 -44 48 -48 51 -53 30z"/>
<path d="M10362 6643 l-261 -308 34 -3 c81 -7 635 -27 636 -22 1 16 -137 640
-143 640 -3 0 -123 -138 -266 -307z"/>
<path d="M8867 6067 c4 -8 97 -127 207 -266 161 -205 201 -250 211 -239 15 16
378 488 388 506 7 9 -77 12 -403 12 -339 0 -410 -2 -403 -13z"/>
</g>
</svg>
